<svg width="32" height="32" viewBox="0 0 32 32" version="1.1" xmlns="http://www.w3.org/2000/svg" xmlns:xlink="http://www.w3.org/1999/xlink">
<g id="Canvas" transform="translate(-142 2765)">
<g id="search">
<g id="Group">
<g id="Vector">
<use xlink:href="#path0_fill" transform="translate(142 -2765)" fill="#4F4F4F"/>
</g>
</g>
</g>
</g>
<defs>
<path id="path0_fill" d="M 12.4521 24.9042C 15.4892 24.9042 18.2502 23.8274 20.4038 22.0052L 30.0673 31.6687C 30.2882 31.8896 30.5643 32 30.868 32C 31.1717 32 31.4478 31.8896 31.6687 31.6687C 32.1104 31.2269 32.1104 30.5091 31.6687 30.0673L 22.0052 20.4038C 23.7998 18.2502 24.9042 15.4616 24.9042 12.4521C 24.9042 5.57722 19.327 -1.96181e-15 12.4521 -1.96181e-15C 5.60483 -3.92362e-15 0 5.60483 0 12.4521C 0 19.327 5.60483 24.9042 12.4521 24.9042ZM 12.4521 2.26402C 18.0846 2.26402 22.6402 6.84728 22.6402 12.4521C 22.6402 18.0846 18.0846 22.6402 12.4521 22.6402C 6.81967 22.6402 2.26402 18.0569 2.26402 12.4521C 2.26402 6.84728 6.84728 2.26402 12.4521 2.26402Z"/>
</defs>
</svg>
